<svg xmlns="http://www.w3.org/2000/svg" viewBox="0 0 968.25 1039.42"><title>logo</title><circle cx="484.13" cy="484.13" r="484" fill="#d7d7d9" stroke="#232426" stroke-miterlimit="10" stroke-width="0.25"/><path d="M656.59,530.05,993.1,289.11a260.32,260.32,0,0,1,152.42-48.94c5.77,0,11.62.19,17.39.58l60.73,4a23.72,23.72,0,0,1,21.34,29.8l-15.74,58.79a262.49,262.49,0,0,1-100.5,145.18L792.24,719.5Z" transform="translate(-428.88 -21.87)" fill="#313640"/><path d="M1145.52,241.17c5.75,0,11.58.19,17.32.57l60.73,4A22.72,22.72,0,0,1,1244,274.33l-15.74,58.8a261.42,261.42,0,0,1-100.11,144.61L792.47,718.1,658,530.28,993.68,289.93a260.85,260.85,0,0,1,151.84-48.76h0m0-2a262.82,262.82,0,0,0-153,49.13L655.2,529.82,792,720.89l337.31-241.52A262.81,262.81,0,0,0,1230.2,333.64l15.74-58.79a24.72,24.72,0,0,0-22.24-31.06l-60.73-4q-8.73-.58-17.45-.58Z" transform="translate(-428.88 -21.87)"/><path d="M580.69,506.55a46.63,46.63,0,0,1,26.5-8.22A47.12,47.12,0,0,1,645.44,518L797.39,730.19a47,47,0,0,1-10,65Z" transform="translate(-428.88 -21.87)" fill="#fff"/><path d="M607.19,497.33v2h0a46.13,46.13,0,0,1,37.44,19.23l152,212.21a46,46,0,0,1-9,63L582.1,506.81a45.6,45.6,0,0,1,25.09-7.48v-2m0,0a47.78,47.78,0,0,0-27.9,9h0L787.12,796.58h0a48,48,0,0,0,11.08-67L646.26,517.39a48,48,0,0,0-39.07-20.06Z" transform="translate(-428.88 -21.87)"/><path d="M868.88,374" transform="translate(-428.88 -21.87)" fill-rule="evenodd"/><path d="M858.57,371.59c-32.88-8.67-65.89-24.28-92.9-46.12a96.41,96.41,0,0,0-116.8-3.66l-37.39,26.77,99.26,138.63,157.81-113Z" transform="translate(-428.88 -21.87)" fill="#f2d06b" stroke="#000" stroke-miterlimit="10" stroke-width="2"/><rect x="626.2" y="343.84" width="37" height="171" transform="translate(-558.31 433.7) rotate(-35.6)" fill="#fff" stroke="#000" stroke-miterlimit="10" stroke-width="1"/><path d="M982.57,791.3a96.4,96.4,0,0,0,34.17-111.74c-12-32.61-16.12-68.89-13.73-102.81l.72-10.29-157.81,113,99.26,138.63Z" transform="translate(-428.88 -21.87)" fill="#f2d06b" stroke="#000" stroke-miterlimit="10" stroke-width="2"/><rect x="860.84" y="674.82" width="38" height="171" transform="translate(-707.04 632.46) rotate(-35.6)" fill="#fff" stroke="#000" stroke-miterlimit="10"/><path d="M757.62,551l113.3-81.12a87.4,87.4,0,0,1,51.18-16.43c1.94,0,3.9.06,5.84.19L948.48,455a7.35,7.35,0,0,1,6.62,9.25l-5.32,19.89A88.17,88.17,0,0,1,916,532.85L802.73,614Z" transform="translate(-428.88 -21.87)" fill="#f2d06b"/><path d="M922.1,452.41v2c1.91,0,3.86.06,5.77.19L948.41,456a6.38,6.38,0,0,1,5.73,8l-5.33,19.89A87.14,87.14,0,0,1,915.45,532L803,612.58l-44-61.39L871.5,470.65a86.4,86.4,0,0,1,50.6-16.24v-2m0,0A88.87,88.87,0,0,0,870.34,469l-114.12,81.7,46.28,64.64,114.12-81.7a88.93,88.93,0,0,0,34.12-49.3l5.33-19.89A8.37,8.37,0,0,0,948.55,454L928,452.6q-3-.19-5.9-.19Z" transform="translate(-428.88 -21.87)"/><rect x="750.56" y="553.07" width="31.59" height="78.59" transform="translate(-630.48 535) rotate(-35.6)" fill="#fff"/><path d="M756.27,551.51l45.52,63.56-25.36,18.16-45.51-63.57,25.35-18.15m.1-.57-26,18.63,46,64.23,26-18.63-46-64.23Z" transform="translate(-428.88 -21.87)"/><rect x="996.73" y="304.08" width="143.51" height="143.51" rx="25.62" transform="translate(323.15 -733.59) rotate(54.4)" fill="#fff" stroke="#000" stroke-miterlimit="10" stroke-width="1.9"/><path d="M722.23,623.5c-39.43,28.23-38.33,28.06-38.33,28.06" transform="translate(-428.88 -21.87)" fill="#fff" stroke="#000" stroke-miterlimit="10" stroke-width="2"/><path d="M766.47,685.29c-39.43,28.24-38.33,28.06-38.33,28.06" transform="translate(-428.88 -21.87)" fill="#fff" stroke="#000" stroke-miterlimit="10" stroke-width="2"/><path d="M682.57,566.52c-39.44,28.23-38.33,28.06-38.33,28.06" transform="translate(-428.88 -21.87)" fill="#fff" stroke="#000" stroke-miterlimit="10" stroke-width="2"/><path d="M1034.83,527.59c-39.44,28.23-38.33,28.06-38.33,28.06" transform="translate(-428.88 -21.87)" fill="#fff" stroke="#000" stroke-miterlimit="10" stroke-width="2"/><path d="M808.74,438.57c-39.43,28.23-38.33,28.06-38.33,28.06" transform="translate(-428.88 -21.87)" fill="#fff" stroke="#000" stroke-miterlimit="10" stroke-width="2"/><path d="M921.16,647.1c-39.44,28.24-38.33,28.06-38.33,28.06" transform="translate(-428.88 -21.87)" fill="#fff" stroke="#000" stroke-miterlimit="10" stroke-width="2"/><line x1="260.38" y1="432.75" x2="293.72" y2="408.88" fill="#fff" stroke="#000" stroke-miterlimit="10" stroke-width="2"/><text x="-428.88" y="-21.87"/><text transform="translate(631.46 298.17) rotate(53.54)" font-size="34" font-family="BrandonGrotesque-Bold, Brandon Grotesque" font-weight="700"><tspan stroke="#000" stroke-miterlimit="10" stroke-width="2"><tspan letter-spacing="-0.01em">M</tspan><tspan x="29.31" y="0">ission</tspan></tspan><tspan x="34.42" y="40.8">to </tspan><tspan x="18.09" y="81.6" letter-spacing="-0.01em">M</tspan><tspan x="47.43" y="81.6">ars</tspan></text><path d="M606.84,544.8" transform="translate(-428.88 -21.87)" fill="#fff" stroke="#000" stroke-miterlimit="10" stroke-width="2"/><polygon points="352.04 141.86 327.88 130.29 304.64 143.63 308.18 117.07 288.31 99.09 314.67 94.25 325.63 69.8 338.37 93.37 365.01 96.24 346.53 115.64 352.04 141.86" fill="#313640" stroke="#000" stroke-miterlimit="10" stroke-width="2"/><polygon points="812.91 524.47 793.5 520.09 778.89 533.59 777.07 513.78 759.71 504.06 777.98 496.2 781.87 476.69 794.99 491.64 814.75 489.31 804.58 506.41 812.91 524.47" fill="#313640" stroke="#000" stroke-miterlimit="10" stroke-width="2"/><polygon points="620.15 131.72 612.43 122.87 600.77 124.22 606.8 114.14 601.91 103.46 613.36 106.08 622.01 98.13 623.05 109.83 633.28 115.6 622.48 120.21 620.15 131.72" fill="#313640" stroke="#000" stroke-miterlimit="10" stroke-width="2"/><polygon points="394.07 898.39 383.82 890.29 371.34 894.14 375.88 881.89 368.36 871.22 381.4 871.75 389.24 861.29 392.77 873.87 405.13 878.09 394.26 885.33 394.07 898.39" fill="#313640" stroke="#000" stroke-miterlimit="10" stroke-width="2"/><polygon points="694.07 785.34 670.81 768.89 644.07 778.72 652.53 751.52 634.92 729.13 663.4 728.77 679.26 705.1 688.4 732.08 715.81 739.84 692.98 756.87 694.07 785.34" fill="#313640" stroke="#000" stroke-miterlimit="10" stroke-width="2"/><polygon points="146.24 243.31 136.36 233.98 123.08 236.82 128.9 224.54 122.09 212.78 135.57 214.53 144.65 204.42 147.15 217.78 159.57 223.29 147.64 229.8 146.24 243.31" fill="#313640" stroke="#000" stroke-miterlimit="10" stroke-width="2"/><polygon points="96.97 630.27 85.91 624.88 75.2 630.94 76.91 618.75 67.84 610.44 79.95 608.3 85.06 597.11 90.84 607.97 103.06 609.37 94.52 618.22 96.97 630.27" fill="#313640" stroke="#000" stroke-miterlimit="10" stroke-width="2"/></svg>