<svg xmlns="http://www.w3.org/2000/svg" viewBox="0 0 1096.3 970"><title>logo</title><circle cx="485" cy="485" r="484" fill="#d7d7d9" stroke="#232426" stroke-miterlimit="10" stroke-width="2"/><path d="M801.42,856.41l5.91-413.83a262.39,262.39,0,0,1,61.9-165.35l39.3-46.47a23.72,23.72,0,0,1,36.66.52l38,47.57a262.44,262.44,0,0,1,57.15,167.06l-5.9,413.83Z" transform="translate(-434 -108)" fill="#313640"/><path d="M926.64,221.36v2a22.62,22.62,0,0,1,17.77,8.54l38,47.58a261.42,261.42,0,0,1,56.93,166.41l-5.89,412.83-231-3.3,5.89-412.82A261.49,261.49,0,0,1,870,277.87L909.3,231.4a22.67,22.67,0,0,1,17.34-8v-2m0,0a24.62,24.62,0,0,0-18.87,8.76l-39.31,46.47a262.86,262.86,0,0,0-62.13,166L800.41,857.4l235,3.35,5.92-414.83a262.78,262.78,0,0,0-57.37-167.69l-38-47.57a24.62,24.62,0,0,0-19.33-9.31Z" transform="translate(-434 -108)"/><path d="M738.82,903a46.7,46.7,0,0,1,46.44-44.33h.68l261,3.73a46.49,46.49,0,0,1,45.83,45.65Z" transform="translate(-434 -108)" fill="#fff"/><path d="M785.26,860.21h.66l261,3.73a45.06,45.06,0,0,1,44.3,42.63l-350.77-5a45,45,0,0,1,44.84-41.35m0-3a48,48,0,0,0-48,47.31l357,5.1h0a48,48,0,0,0-47.31-48.68l-261-3.73Z" transform="translate(-434 -108)"/><path d="M802.73,592.92" transform="translate(-434 -108)" fill-rule="evenodd"/><path d="M794.69,599.8c-26.5,21.31-58.66,38.61-92.27,47.38A96.4,96.4,0,0,0,630.13,739l-.66,46L800,787.4l2.77-194.06Z" transform="translate(-434 -108)" fill="#f2d06b" stroke="#000" stroke-miterlimit="10" stroke-width="3"/><rect x="695.68" y="720.68" width="37" height="171" transform="translate(-536.11 1400.78) rotate(-89.18)" fill="#fff" stroke="#000" stroke-miterlimit="10" stroke-width="2"/><path d="M1206,749.21a96.4,96.4,0,0,0-69.63-93.84c-33.35-9.72-65-27.93-90.88-50l-7.86-6.69-2.77,194.07,170.49,2.43Z" transform="translate(-434 -108)" fill="#f2d06b" stroke="#000" stroke-miterlimit="10" stroke-width="3"/><rect x="1101.12" y="727.98" width="38" height="171" transform="translate(-143.26 1813.87) rotate(-89.18)" fill="#fff" stroke="#000" stroke-miterlimit="10" stroke-width="2"/><path d="M879.09,787.53l2-139.33a88.19,88.19,0,0,1,20.78-55.53L915.16,577a7.36,7.36,0,0,1,11.38.16l12.84,16.09a88.16,88.16,0,0,1,19.19,56.09l-2,139.34Z" transform="translate(-434 -108)" fill="#f2d06b"/><path d="M920.78,575.35h0a6.31,6.31,0,0,1,5,2.39l12.85,16.09a87.13,87.13,0,0,1,19,55.46l-2,138.33-75.49-1.07,2-138.34a87.12,87.12,0,0,1,20.54-54.89l13.3-15.72a6.35,6.35,0,0,1,4.86-2.25m0-2a8.33,8.33,0,0,0-6.39,3L901.1,592a88.88,88.88,0,0,0-21,56.15l-2,140.34,79.5,1.13,2-140.33a88.94,88.94,0,0,0-19.41-56.73l-12.84-16.1a8.34,8.34,0,0,0-6.54-3.14Z" transform="translate(-434 -108)"/><rect x="902.59" y="766.58" width="30" height="77" transform="translate(-334.51 1603.09) rotate(-89.18)" fill="#fff"/><path d="M880.3,790.55l75,1.07-.4,28-75-1.07.4-28m-2-2-.45,32,79,1.13.46-32-79-1.13Z" transform="translate(-434 -108)"/><rect x="854.92" y="361.57" width="131.9" height="131.9" rx="23.55" transform="translate(-427.8 -121.1) rotate(0.82)" fill="#fff" stroke="#000" stroke-miterlimit="10" stroke-width="2"/><path d="M916.27,906.58" transform="translate(-434 -108)" fill="#fff" stroke="#000" stroke-miterlimit="10" stroke-width="2"/><path d="M916.45,859.07" transform="translate(-434 -108)" fill="#fff" stroke="#000" stroke-miterlimit="10" stroke-width="2"/><path d="M992.44,860.16C991.75,908.65,992,906,992,906" transform="translate(-434 -108)" fill="#232426" stroke="#000" stroke-miterlimit="10" stroke-width="3"/><path d="M1024.86,550.59c-.69,48.49-.18,47.5-.18,47.5" transform="translate(-434 -108)" fill="#fff" stroke="#000" stroke-miterlimit="10" stroke-width="3"/><path d="M819,679.66c-.7,48.5-.18,47.51-.18,47.51" transform="translate(-434 -108)" fill="#fff" stroke="#000" stroke-miterlimit="10" stroke-width="3"/><path d="M1053.54,713c-.69,48.49-.17,47.5-.17,47.5" transform="translate(-434 -108)" fill="#fff" stroke="#000" stroke-miterlimit="10" stroke-width="3"/><line x1="326.98" y1="677.35" x2="327.57" y2="636.35" fill="#fff" stroke="#000" stroke-miterlimit="10" stroke-width="3"/><text x="-434" y="-108"/><text transform="translate(434 299.83) rotate(-0.04)" font-size="26" fill="#232426" stroke="#232426" stroke-miterlimit="10" stroke-width="0.25" font-family="BrandonGrotesque-Bold, Brandon Grotesque" font-weight="700">MISSION<tspan letter-spacing="-0.01em"><tspan x="37.21" y="31.2">T</tspan><tspan x="50.05" y="31.2" letter-spacing="0em">O</tspan></tspan><tspan x="18.36" y="62.4">MARS</tspan></text><text x="-434" y="-108"/><path d="M846.44,859.16C845.75,907.65,846,905,846,905" transform="translate(-434 -108)" fill="#232426" stroke="#000" stroke-miterlimit="10" stroke-width="3"/><path d="M916.44,859.16C915.75,907.65,916,905,916,905" transform="translate(-434 -108)" fill="#232426" stroke="#000" stroke-miterlimit="10" stroke-width="3"/></svg>